<svg width="437" height="116" viewBox="0 0 437 116" fill="none" xmlns="http://www.w3.org/2000/svg">
<path d="M5 15H89.2155C99.5899 15 108 22.6753 108 32.1433V109H23.7846C13.4102 109 5 101.325 5 91.8569V15Z" fill="#01556B"/>
<path d="M57 56.2773C57 42.317 69.1875 31 84.2217 31H99V44.7227C99 58.683 86.8125 70 71.7785 70H57V56.2773Z" fill="#82C75B"/>
<path d="M29.6958 62C44.7756 62 57 73.3512 57 87.3538V101H42.3041C27.2246 101 15 89.6486 15 75.6462V62H29.6958Z" fill="#3AB54A"/>
<path d="M77.5 101C85.5081 101 92 95.1797 92 88C92 80.8203 85.5081 75 77.5 75C69.4919 75 63 80.8203 63 88C63 95.1797 69.4919 101 77.5 101Z" fill="#FAFAE2"/>
<path d="M35.4999 59C46.2695 59 55 50.941 55 41C55 31.0589 46.2695 23 35.4999 23C24.7304 23 16 31.0589 16 41C16 50.941 24.7304 59 35.4999 59Z" fill="#009EDB"/>
<mask id="mask0_6656_21496" style="mask-type:luminance" maskUnits="userSpaceOnUse" x="15" y="22" width="41" height="37">
<path d="M35.6288 58.6214C46.4824 58.6214 55.2812 50.5472 55.2812 40.5874C55.2812 30.6276 46.4824 22.5536 35.6288 22.5536C24.7752 22.5536 15.9766 30.6276 15.9766 40.5874C15.9766 50.5472 24.7752 58.6214 35.6288 58.6214Z" fill="white"/>
</mask>
<g mask="url(#mask0_6656_21496)">
<path d="M16.8203 53.2217C27.6739 53.2217 36.4726 45.1477 36.4726 35.1879C36.4726 25.2281 27.6739 17.1541 16.8203 17.1541C5.9666 17.1541 -2.83203 25.2281 -2.83203 35.1879C-2.83203 45.1477 5.9666 53.2217 16.8203 53.2217Z" fill="#64D3ED"/>
<path d="M37.0233 73.38C47.877 73.38 56.6757 65.306 56.6757 55.3462C56.6757 45.3864 47.877 37.3123 37.0233 37.3123C26.1697 37.3123 17.3711 45.3864 17.3711 55.3462C17.3711 65.306 26.1697 73.38 37.0233 73.38Z" fill="#2EBCE8"/>
</g>
<path d="M129.338 40.8969V16.3507H134.309V36.5138H146.926V40.8969H129.338ZM150.546 40.8969V16.3507H155.516V36.5138H168.133V40.8969H150.546ZM171.753 40.8969V16.3507H181.503C185.148 16.3507 188.219 17.5312 190.717 19.8924C193.241 22.2301 194.502 25.1406 194.502 28.6238C194.502 32.1071 193.241 35.0293 190.717 37.3903C188.219 39.7282 185.148 40.8969 181.503 40.8969H171.753ZM176.724 36.5138H181.503C183.822 36.5138 185.734 35.7891 187.238 34.3396C188.767 32.8903 189.532 30.9849 189.532 28.6238C189.532 26.2627 188.767 24.3574 187.238 22.908C185.734 21.4586 183.822 20.7339 181.503 20.7339H176.724V36.5138ZM217.819 32.1305H222.981C222.827 32.7851 222.598 33.4629 222.292 34.1642C222.011 34.8656 221.541 35.6605 220.878 36.5489C220.24 37.4137 219.502 38.1852 218.659 38.8632C217.819 39.5411 216.722 40.1139 215.371 40.5813C214.021 41.0255 212.542 41.2476 210.937 41.2476C207.266 41.2476 204.182 40.0555 201.684 37.6709C199.186 35.2864 197.937 32.2708 197.937 28.6238C197.937 24.977 199.186 21.9613 201.684 19.5768C204.182 17.1923 207.266 16 210.937 16C212.44 16 213.83 16.2104 215.105 16.6312C216.403 17.0286 217.486 17.5429 218.355 18.1741C219.221 18.8053 219.986 19.5417 220.649 20.3833C221.31 21.2015 221.82 21.9846 222.178 22.7327C222.535 23.4808 222.801 24.2172 222.981 24.9419H217.819C217.309 23.7263 216.481 22.6626 215.334 21.7509C214.212 20.8391 212.747 20.3833 210.937 20.3833C208.591 20.3833 206.667 21.143 205.163 22.6626C203.66 24.1587 202.908 26.1458 202.908 28.6238C202.908 31.1018 203.66 33.1007 205.163 34.6201C206.667 36.1164 208.591 36.8643 210.937 36.8643C212.773 36.8643 214.25 36.3969 215.371 35.4618C216.519 34.5266 217.335 33.4161 217.819 32.1305ZM225.478 35.4618H230.066C230.066 35.9995 230.399 36.5138 231.06 37.0046C231.749 37.4955 232.693 37.741 233.89 37.741C236.311 37.741 237.522 37.0981 237.522 35.8124C237.522 35.2514 237.331 34.8188 236.948 34.5149C236.566 34.1876 235.865 33.9538 234.846 33.8136L231.787 33.3577C227.581 32.7266 225.478 31.0317 225.478 28.2732C225.478 26.7069 226.205 25.3861 227.659 24.3107C229.11 23.212 231.124 22.6626 233.699 22.6626C236.273 22.6626 238.287 23.3055 239.74 24.5912C241.192 25.877 241.919 27.1627 241.919 28.4485H237.331C237.331 27.8641 237 27.3381 236.337 26.8705C235.674 26.403 234.796 26.1692 233.699 26.1692C232.603 26.1692 231.749 26.3796 231.138 26.8004C230.55 27.1978 230.257 27.6887 230.257 28.2732C230.257 29.1381 231.149 29.6874 232.934 29.9212L236.184 30.3771C240.262 30.9382 242.301 32.75 242.301 35.8124C242.301 37.3786 241.575 38.6761 240.123 39.7048C238.695 40.7333 236.618 41.2476 233.89 41.2476C232.514 41.2476 231.291 41.084 230.219 40.7567C229.174 40.4295 228.36 40.0438 227.772 39.5996C227.212 39.132 226.74 38.606 226.358 38.0215C226.002 37.4371 225.759 36.9461 225.631 36.5489C225.53 36.128 225.478 35.7657 225.478 35.4618ZM256.06 40.8969V16.3507H273.84V20.5586H261.031V26.5199H272.884V30.7278H261.031V40.8969H256.06ZM281.827 35.7423C282.821 36.7242 284.046 37.215 285.497 37.215C286.951 37.215 288.174 36.7242 289.168 35.7423C290.161 34.7604 290.659 33.498 290.659 31.9551C290.659 30.4122 290.161 29.1498 289.168 28.168C288.174 27.1861 286.951 26.6952 285.497 26.6952C284.046 26.6952 282.821 27.1861 281.827 28.168C280.833 29.1498 280.336 30.4122 280.336 31.9551C280.336 33.498 280.833 34.7604 281.827 35.7423ZM278.348 25.2925C280.234 23.5392 282.618 22.6626 285.497 22.6626C288.377 22.6626 290.749 23.5392 292.609 25.2925C294.495 27.0225 295.439 29.2433 295.439 31.9551C295.439 34.6669 294.495 36.8994 292.609 38.6528C290.749 40.3828 288.377 41.2476 285.497 41.2476C282.618 41.2476 280.234 40.3828 278.348 38.6528C276.488 36.8994 275.556 34.6669 275.556 31.9551C275.556 29.2433 276.488 27.0225 278.348 25.2925ZM299.437 40.8969V23.0132H303.452L303.834 24.5912H304.026C304.255 24.3107 304.535 24.0535 304.868 23.8198C305.657 23.2821 306.525 23.0132 307.467 23.0132H311.29V27.2212H307.849C305.428 27.2212 304.217 28.3316 304.217 30.5524V40.8969H299.437ZM314.148 33.7084V23.0132H318.927V33.3577C318.927 34.5032 319.31 35.4384 320.074 36.1631C320.865 36.8643 321.885 37.215 323.133 37.215C324.382 37.215 325.39 36.8643 326.154 36.1631C326.945 35.4384 327.339 34.5032 327.339 33.3577V23.0132H332.119V40.8969H327.721L327.339 39.1437H327.148C326.841 39.4944 326.409 39.8451 325.848 40.1957C324.677 40.8969 323.324 41.2476 321.795 41.2476C319.579 41.2476 317.742 40.5579 316.291 39.1788C314.863 37.7761 314.148 35.9527 314.148 33.7084ZM337.073 40.8969V23.0132H341.47L341.853 24.7665H342.044C342.35 24.3925 342.733 24.0418 343.191 23.7146C344.21 23.0132 345.358 22.6626 346.632 22.6626C348.161 22.6626 349.526 23.0717 350.722 23.8899C351.258 24.3107 351.678 24.7198 351.985 25.1172H352.176C352.507 24.7198 352.967 24.3107 353.552 23.8899C354.801 23.0717 356.255 22.6626 357.911 22.6626C359.925 22.6626 361.633 23.3639 363.033 24.7665C364.461 26.1458 365.176 27.8407 365.176 29.8511V40.8969H360.397V30.2017C360.397 29.0797 360.104 28.2147 359.517 27.6069C358.931 26.9991 358.14 26.6952 357.147 26.6952C356.075 26.6952 355.197 27.0342 354.508 27.7121C353.845 28.3667 353.514 29.1966 353.514 30.2017V40.8969H348.735V30.2017C348.735 29.0797 348.442 28.2147 347.855 27.6069C347.269 26.9991 346.479 26.6952 345.485 26.6952C344.416 26.6952 343.535 27.0342 342.846 27.7121C342.185 28.3667 341.853 29.1966 341.853 30.2017V40.8969H337.073ZM134.27 68.6185C135.265 69.6004 136.488 70.0912 137.941 70.0912C139.394 70.0912 140.617 69.6004 141.611 68.6185C142.605 67.6366 143.102 66.3742 143.102 64.8313C143.102 63.2884 142.605 62.0261 141.611 61.0442C140.617 60.0623 139.394 59.5713 137.941 59.5713C136.488 59.5713 135.265 60.0623 134.27 61.0442C133.276 62.0261 132.779 63.2884 132.779 64.8313C132.779 66.3742 133.276 67.6366 134.27 68.6185ZM130.791 58.1688C132.677 56.4154 135.061 55.5387 137.941 55.5387C140.821 55.5387 143.192 56.4154 145.052 58.1688C146.938 59.8986 147.881 62.1196 147.881 64.8313C147.881 67.5431 146.938 69.7756 145.052 71.529C143.192 73.259 140.821 74.1238 137.941 74.1238C135.061 74.1238 132.677 73.259 130.791 71.529C128.93 69.7756 128 67.5431 128 64.8313C128 62.1196 128.93 59.8986 130.791 58.1688ZM151.881 73.7731V55.8894H156.278L156.66 57.6428H156.851C157.157 57.2921 157.591 56.9414 158.151 56.5907C159.324 55.8894 160.675 55.5387 162.204 55.5387C164.422 55.5387 166.244 56.2401 167.671 57.6428C169.124 59.0219 169.851 60.8338 169.851 63.0779V73.7731H165.072V63.4286C165.072 62.2833 164.676 61.3598 163.886 60.6584C163.122 59.9337 162.115 59.5713 160.866 59.5713C159.617 59.5713 158.597 59.9337 157.807 60.6584C157.042 61.3598 156.66 62.2833 156.66 63.4286V73.7731H151.881ZM184.56 73.7731V49.2268H202.339V53.4348H189.53V59.396H201.383V63.604H189.53V73.7731H184.56ZM210.327 68.6185C211.321 69.6004 212.544 70.0912 213.997 70.0912C215.449 70.0912 216.674 69.6004 217.668 68.6185C218.661 67.6366 219.159 66.3742 219.159 64.8313C219.159 63.2884 218.661 62.0261 217.668 61.0442C216.674 60.0623 215.449 59.5713 213.997 59.5713C212.544 59.5713 211.321 60.0623 210.327 61.0442C209.331 62.0261 208.836 63.2884 208.836 64.8313C208.836 66.3742 209.331 67.6366 210.327 68.6185ZM206.846 58.1688C208.734 56.4154 211.116 55.5387 213.997 55.5387C216.877 55.5387 219.247 56.4154 221.109 58.1688C222.995 59.8986 223.937 62.1196 223.937 64.8313C223.937 67.5431 222.995 69.7756 221.109 71.529C219.247 73.259 216.877 74.1238 213.997 74.1238C211.116 74.1238 208.734 73.259 206.846 71.529C204.986 69.7756 204.056 67.5431 204.056 64.8313C204.056 62.1196 204.986 59.8986 206.846 58.1688ZM233.252 68.6185C234.246 69.6004 235.469 70.0912 236.923 70.0912C238.374 70.0912 239.599 69.6004 240.593 68.6185C241.587 67.6366 242.082 66.3742 242.082 64.8313C242.082 63.2884 241.587 62.0261 240.593 61.0442C239.599 60.0623 238.374 59.5713 236.923 59.5713C235.469 59.5713 234.246 60.0623 233.252 61.0442C232.257 62.0261 231.761 63.2884 231.761 64.8313C231.761 66.3742 232.257 67.6366 233.252 68.6185ZM229.771 58.1688C231.659 56.4154 234.041 55.5387 236.923 55.5387C239.802 55.5387 242.172 56.4154 244.034 58.1688C245.92 59.8986 246.862 62.1196 246.862 64.8313C246.862 67.5431 245.92 69.7756 244.034 71.529C242.172 73.259 239.802 74.1238 236.923 74.1238C234.041 74.1238 231.659 73.259 229.771 71.529C227.911 69.7756 226.981 67.5431 226.981 64.8313C226.981 62.1196 227.911 59.8986 229.771 58.1688ZM256.062 68.7237C256.98 69.6355 258.177 70.0912 259.657 70.0912C261.134 70.0912 262.331 69.6355 263.249 68.7237C264.167 67.7886 264.625 66.491 264.625 64.8313C264.625 63.1715 264.167 61.8858 263.249 60.9741C262.331 60.0389 261.134 59.5713 259.657 59.5713C258.177 59.5713 256.98 60.0389 256.062 60.9741C255.144 61.8858 254.686 63.1715 254.686 64.8313C254.686 66.491 255.144 67.7886 256.062 68.7237ZM265.199 73.7731L264.816 71.8446H264.625C264.243 72.2888 263.785 72.6745 263.249 73.0018C262.026 73.7497 260.573 74.1238 258.892 74.1238C256.343 74.1238 254.2 73.2707 252.468 71.564C250.761 69.834 249.907 67.5898 249.907 64.8313C249.907 62.0728 250.761 59.8402 252.468 58.1337C254.2 56.4037 256.343 55.5387 258.892 55.5387C260.421 55.5387 261.821 55.9245 263.096 56.6959C263.632 57.0232 264.078 57.3973 264.434 57.8181H264.625V49.2268H269.405V73.7731H265.199ZM282.982 66.0587H287.953C287.953 67.1573 288.488 68.0808 289.558 68.8289C290.655 69.5536 292.095 69.9158 293.879 69.9158C295.689 69.9158 297.028 69.6355 297.894 69.0744C298.786 68.4899 299.232 67.7184 299.232 66.7599C299.232 65.1236 297.767 64.0715 294.835 63.604L290.247 62.9026C285.786 62.2248 283.556 60.0038 283.556 56.2401C283.556 54.1362 284.448 52.3828 286.232 50.9802C288.017 49.5775 290.438 48.8762 293.497 48.8762C296.811 48.8762 299.36 49.6243 301.144 51.1205C302.928 52.6166 303.82 54.557 303.82 56.9414H298.85C298.85 55.8426 298.378 54.931 297.434 54.2063C296.492 53.4582 295.18 53.0841 293.497 53.0841C291.84 53.0841 290.591 53.3764 289.749 53.9608C288.935 54.5219 288.526 55.2815 288.526 56.2401C288.526 56.9882 288.793 57.596 289.329 58.0636C289.865 58.5078 290.808 58.8351 292.159 59.0453L296.365 59.7467C299.091 60.1909 301.08 60.9741 302.329 62.0962C303.578 63.1948 304.203 64.7495 304.203 66.7599C304.203 68.9575 303.311 70.7341 301.526 72.09C299.742 73.4458 297.193 74.1238 293.879 74.1238C290.514 74.1238 287.851 73.3757 285.888 71.8796C283.952 70.36 282.982 68.4198 282.982 66.0587ZM312.222 63.2533H322.163C321.934 62.0612 321.399 61.0909 320.556 60.3428C319.742 59.5947 318.684 59.2207 317.384 59.2207C316.008 59.2207 314.873 59.5947 313.981 60.3428C313.114 61.0676 312.529 62.0378 312.222 63.2533ZM321.399 68.5133H326.369C326.242 68.9575 325.987 69.4601 325.605 70.021C325.246 70.5587 324.724 71.1666 324.035 71.8446C323.374 72.4992 322.456 73.0486 321.283 73.4926C320.11 73.9134 318.812 74.1238 317.384 74.1238C314.504 74.1238 312.121 73.259 310.235 71.529C308.373 69.7756 307.443 67.5431 307.443 64.8313C307.443 62.1196 308.373 59.8986 310.235 58.1688C312.121 56.4154 314.504 55.5387 317.384 55.5387C320.06 55.5387 322.317 56.4037 324.151 58.1337C326.011 59.8402 326.943 61.956 326.943 64.4807C326.943 64.6911 326.903 65.1119 326.827 65.7431L326.752 66.2339H312.222C312.425 67.4963 312.999 68.5133 313.943 69.2848C314.887 70.0561 316.032 70.4419 317.384 70.4419C318.404 70.4419 319.27 70.2431 319.983 69.8457C320.698 69.4251 321.17 68.9809 321.399 68.5133ZM344.332 67.1106H349.111C348.932 67.9055 348.639 68.6769 348.231 69.4251C347.849 70.173 347.315 70.9211 346.626 71.6692C345.939 72.394 345.007 72.9901 343.836 73.4575C342.689 73.9017 341.389 74.1238 339.935 74.1238C337.055 74.1238 334.672 73.259 332.786 71.529C330.926 69.7756 329.996 67.5431 329.996 64.8313C329.996 62.1196 330.926 59.8986 332.786 58.1688C334.672 56.4154 337.055 55.5387 339.935 55.5387C341.389 55.5387 342.689 55.7725 343.836 56.2401C345.007 56.6843 345.939 57.2687 346.626 57.9935C347.315 58.7182 347.849 59.4428 348.231 60.1675C348.639 60.8922 348.932 61.6287 349.111 62.3768H344.332C343.567 60.5065 342.102 59.5713 339.935 59.5713C338.483 59.5713 337.258 60.0623 336.265 61.0442C335.271 62.0261 334.773 63.2884 334.773 64.8313C334.773 66.3742 335.271 67.6366 336.265 68.6185C337.258 69.6004 338.483 70.0912 339.935 70.0912C342.179 70.0912 343.645 69.0978 344.332 67.1106ZM352.943 66.5846V55.8894H357.722V66.2339C357.722 67.3794 358.105 68.3146 358.869 69.0393C359.658 69.7405 360.678 70.0912 361.926 70.0912C363.177 70.0912 364.182 69.7405 364.947 69.0393C365.738 68.3146 366.132 67.3794 366.132 66.2339V55.8894H370.911V73.7731H366.514L366.132 72.0199H365.941C365.636 72.3706 365.202 72.7213 364.642 73.0719C363.47 73.7731 362.117 74.1238 360.588 74.1238C358.371 74.1238 356.535 73.4341 355.084 72.055C353.656 70.6523 352.943 68.8289 352.943 66.5846ZM375.868 73.7731V55.8894H379.883L380.263 57.4674H380.454C380.685 57.1869 380.964 56.9297 381.297 56.6959C382.087 56.1582 382.954 55.8894 383.896 55.8894H387.719V60.0974H384.278C381.856 60.0974 380.646 61.2078 380.646 63.4286V73.7731H375.868ZM390.579 73.7731V55.8894H395.358V73.7731H390.579ZM390.388 53.0841V48.8762H395.549V53.0841H390.388ZM401.852 69.5653V60.0974H398.793V55.8894H401.852V50.8049H406.632V55.8894H411.029V60.0974H406.632V68.6886C406.632 69.5069 407.078 69.9158 407.97 69.9158H411.029V73.7731H406.823C405.218 73.7731 403.981 73.4108 403.115 72.6862C402.272 71.9381 401.852 70.8977 401.852 69.5653ZM415.029 80.7863V76.7539H418.853C419.618 76.7539 420.102 76.4617 420.307 75.8772L420.649 75.0005L412.735 55.8894H417.706L422.676 67.9873H423.441L428.029 55.8894H433L424.779 77.2797C424.296 78.5656 423.644 79.4656 422.83 79.98C422.039 80.5177 420.777 80.7863 419.044 80.7863H415.029ZM141.191 106.649L140.808 104.896H140.617C140.286 105.27 139.84 105.621 139.279 105.948C138.055 106.649 136.654 107 135.073 107C132.932 107 131.212 106.474 129.912 105.422C128.637 104.37 128 103.084 128 101.565C128 99.7413 128.688 98.292 130.065 97.2166C131.441 96.1412 133.429 95.6035 136.029 95.6035H140.426V95.253C140.426 94.2477 140.107 93.4411 139.47 92.8333C138.858 92.2254 138.03 91.9215 136.985 91.9215C135.991 91.9215 135.188 92.1553 134.576 92.6229C133.99 93.0904 133.646 93.6165 133.544 94.2009H128.765C128.994 92.5878 129.81 91.2203 131.212 90.0982C132.614 88.976 134.538 88.4149 136.985 88.4149C139.432 88.4149 141.407 89.0695 142.911 90.3787C144.44 91.6879 145.205 93.3125 145.205 95.253V106.649H141.191ZM140.426 99.4608V98.9349H136.411C133.99 98.9349 132.779 99.6945 132.779 101.214C132.779 101.916 133.047 102.477 133.582 102.897C134.117 103.295 134.869 103.493 135.838 103.493C137.291 103.493 138.412 103.143 139.203 102.442C140.018 101.717 140.426 100.723 140.426 99.4608ZM149.977 106.649V88.7656H154.374L154.756 90.519H154.947C155.253 90.1683 155.686 89.8176 156.247 89.4669C157.419 88.7656 158.77 88.4149 160.3 88.4149C162.517 88.4149 164.34 89.1163 165.767 90.519C167.22 91.8981 167.947 93.71 167.947 95.9541V106.649H163.167V96.3048C163.167 95.1594 162.772 94.236 161.982 93.5346C161.217 92.8099 160.211 92.4475 158.962 92.4475C157.713 92.4475 156.693 92.8099 155.903 93.5346C155.138 94.236 154.756 95.1594 154.756 96.3048V106.649H149.977ZM177.915 101.6C178.833 102.512 180.03 102.967 181.509 102.967C182.987 102.967 184.185 102.512 185.103 101.6C186.02 100.665 186.479 99.3672 186.479 97.7075C186.479 96.0477 186.02 94.762 185.103 93.8502C184.185 92.9151 182.987 92.4475 181.509 92.4475C180.03 92.4475 178.833 92.9151 177.915 93.8502C176.997 94.762 176.539 96.0477 176.539 97.7075C176.539 99.3672 176.997 100.665 177.915 101.6ZM187.053 106.649L186.67 104.721H186.479C186.097 105.165 185.638 105.551 185.103 105.878C183.879 106.626 182.427 107 180.744 107C178.195 107 176.054 106.147 174.321 104.44C172.613 102.71 171.759 100.466 171.759 97.7075C171.759 94.949 172.613 92.7164 174.321 91.0099C176.054 89.2799 178.195 88.4149 180.744 88.4149C182.274 88.4149 183.675 88.8006 184.95 89.5721C185.485 89.8994 185.931 90.2735 186.288 90.6943H186.479V82.103H191.258V106.649H187.053ZM207.511 102.442V92.9736H204.452V88.7656H207.511V83.6811H212.291V88.7656H216.688V92.9736H212.291V101.565C212.291 102.383 212.737 102.792 213.629 102.792H216.688V106.649H212.482C210.877 106.649 209.64 106.287 208.774 105.562C207.933 104.814 207.511 103.774 207.511 102.442ZM221.071 106.649V82.103H225.85V90.519H226.041C226.348 90.1683 226.78 89.8176 227.342 89.4669C228.515 88.7656 229.865 88.4149 231.394 88.4149C233.613 88.4149 235.435 89.1163 236.861 90.519C238.315 91.8981 239.041 93.71 239.041 95.9541V106.649H234.262V96.3048C234.262 95.1594 233.868 94.236 233.077 93.5346C232.312 92.8099 231.305 92.4475 230.056 92.4475C228.808 92.4475 227.788 92.8099 226.997 93.5346C226.233 94.236 225.85 95.1594 225.85 96.3048V106.649H221.071ZM247.628 96.1295H257.57C257.341 94.9374 256.805 93.9671 255.963 93.219C255.148 92.4709 254.091 92.0968 252.79 92.0968C251.414 92.0968 250.279 92.4709 249.387 93.219C248.521 93.9438 247.935 94.914 247.628 96.1295ZM256.805 101.389H261.776C261.648 101.834 261.393 102.336 261.011 102.897C260.654 103.435 260.131 104.043 259.444 104.721C258.78 105.375 257.862 105.925 256.689 106.369C255.519 106.79 254.218 107 252.79 107C249.911 107 247.527 106.135 245.641 104.405C243.779 102.652 242.849 100.419 242.849 97.7075C242.849 94.9958 243.779 92.7748 245.641 91.045C247.527 89.2916 249.911 88.4149 252.79 88.4149C255.467 88.4149 257.723 89.2799 259.557 91.0099C261.419 92.7164 262.349 94.8321 262.349 97.3569C262.349 97.5673 262.311 97.9881 262.234 98.6193L262.158 99.1101H247.628C247.832 100.373 248.405 101.389 249.349 102.161C250.293 102.932 251.44 103.318 252.79 103.318C253.81 103.318 254.676 103.119 255.391 102.722C256.104 102.301 256.576 101.857 256.805 101.389ZM274.768 98.9349H279.738C279.738 100.034 280.274 100.957 281.345 101.705C282.441 102.43 283.88 102.792 285.665 102.792C287.475 102.792 288.813 102.512 289.679 101.951C290.572 101.366 291.018 100.595 291.018 99.6361C291.018 97.9998 289.552 96.9477 286.621 96.4802L282.032 95.7788C277.572 95.101 275.341 92.88 275.341 89.1163C275.341 87.0124 276.233 85.259 278.018 83.8564C279.802 82.4537 282.223 81.7524 285.282 81.7524C288.596 81.7524 291.145 82.5005 292.929 83.9967C294.714 85.4928 295.606 87.4332 295.606 89.8176H290.635C290.635 88.7188 290.163 87.8072 289.221 87.0825C288.277 86.3344 286.965 85.9603 285.282 85.9603C283.625 85.9603 282.377 86.2526 281.536 86.837C280.72 87.3981 280.312 88.1577 280.312 89.1163C280.312 89.8644 280.581 90.4722 281.114 90.9398C281.65 91.384 282.594 91.7113 283.944 91.9215L288.15 92.6229C290.878 93.0671 292.866 93.8502 294.114 94.9724C295.363 96.071 295.988 97.6257 295.988 99.6361C295.988 101.834 295.096 103.61 293.312 104.966C291.527 106.322 288.978 107 285.665 107C282.301 107 279.637 106.252 277.675 104.756C275.737 103.236 274.768 101.296 274.768 98.9349ZM300.566 106.649V82.103H310.316C313.961 82.103 317.034 83.2837 319.531 85.6447C322.054 87.9826 323.316 90.893 323.316 94.3763C323.316 97.8595 322.054 100.782 319.531 103.143C317.034 105.481 313.961 106.649 310.316 106.649H300.566ZM305.537 102.266H310.316C312.636 102.266 314.548 101.541 316.052 100.092C317.581 98.6427 318.346 96.7373 318.346 94.3763C318.346 92.015 317.581 90.1098 316.052 88.6604C314.548 87.2111 312.636 86.4863 310.316 86.4863H305.537V102.266ZM348.161 106.649L347.779 103.844H347.588C347.104 104.429 346.467 104.955 345.676 105.422C343.944 106.474 341.968 107 339.75 107C336.08 107 332.995 105.808 330.498 103.423C328 101.039 326.752 98.0231 326.752 94.3763C326.752 90.7294 328 87.7137 330.498 85.3291C332.995 82.9447 336.08 81.7524 339.75 81.7524C341.484 81.7524 343.077 82.0212 344.529 82.5589C345.983 83.0966 347.194 83.8097 348.161 84.6979C349.129 85.5863 349.908 86.5214 350.493 87.5033C351.105 88.485 351.539 89.4903 351.794 90.519H346.632C345.154 87.5968 342.86 86.1357 339.75 86.1357C337.406 86.1357 335.48 86.8955 333.977 88.4149C332.473 89.9111 331.72 91.8981 331.72 94.3763C331.72 96.8542 332.473 98.8531 333.977 100.373C335.48 101.869 337.406 102.617 339.75 102.617C340.923 102.617 341.994 102.418 342.962 102.021C343.93 101.623 344.694 101.144 345.256 100.583C345.818 99.9985 346.25 99.4257 346.556 98.8648C346.861 98.2803 347.014 97.7777 347.014 97.3569V97.1815H340.323V93.6749H351.985V106.649H348.161ZM355.412 101.214H360C360 101.752 360.331 102.266 360.994 102.757C361.683 103.248 362.625 103.493 363.824 103.493C366.246 103.493 367.456 102.85 367.456 101.565C367.456 101.004 367.265 100.571 366.883 100.267C366.5 99.94 365.799 99.7062 364.78 99.566L361.721 99.1101C357.515 98.479 355.412 96.7841 355.412 94.0256C355.412 92.4592 356.139 91.1385 357.591 90.0631C359.045 88.9643 361.058 88.4149 363.633 88.4149C366.208 88.4149 368.221 89.0578 369.673 90.3436C371.127 91.6295 371.853 92.9151 371.853 94.2009H367.265C367.265 93.6165 366.933 93.0904 366.271 92.6229C365.608 92.1553 364.728 91.9215 363.633 91.9215C362.538 91.9215 361.683 92.1319 361.072 92.5527C360.484 92.9502 360.192 93.4411 360.192 94.0256C360.192 94.8906 361.084 95.4398 362.868 95.6736L366.118 96.1295C370.197 96.6906 372.236 98.5024 372.236 101.565C372.236 103.131 371.509 104.429 370.055 105.457C368.629 106.486 366.55 107 363.824 107C362.448 107 361.223 106.836 360.154 106.509C359.108 106.182 358.292 105.796 357.706 105.352C357.145 104.884 356.675 104.358 356.292 103.774C355.936 103.189 355.693 102.699 355.566 102.301C355.464 101.88 355.412 101.518 355.412 101.214Z" fill="white"/>
</svg>
